<svg width="1744" height="1723" viewBox="0 0 1744 1723" fill="none" xmlns="http://www.w3.org/2000/svg">
<path d="M1084.91 1074.72C985.843 1371.63 721.203 1463.32 581.27 1094.54C562.027 1043.83 612.342 1024.95 647.529 1002.63C671.631 987.348 684.292 974.093 682.823 960.426C675.896 895.951 645.902 716.572 645.902 716.572L642.852 710.793C642.852 710.793 643.583 709.173 640.712 712.038C637.719 715.025 630.818 746.214 603.621 746.214C579.237 746.214 554.482 735.314 542.636 659.886C538.348 632.589 540.781 561.025 570.989 548.102C583.471 542.763 594.987 540.854 606.221 547.263C617.456 553.671 593.26 525.357 718.208 421.232C799.426 353.549 927.717 343.629 979.483 355.057C1031.25 366.484 1083.02 391.824 1105.91 445.483C1133.69 510.593 1080.03 559.759 1091.82 708.042C1089.67 761.617 1092.74 879.198 945.313 918.607C917.313 926.093 926 967 968 977C1035 998 1084.96 1049.27 1084.96 1074.86" fill="white"/>
<path fill-rule="evenodd" clip-rule="evenodd" d="M1084.94 613.2L1085.1 611.806C1089.24 575.399 1093.26 540.118 1112.24 508.429C1118.7 512.85 1117.95 518.452 1115.93 523.643C1096.01 574.845 1097.84 628.04 1099.67 681.206C1099.83 685.863 1099.99 690.519 1100.14 695.174C1102.22 761.601 1085.65 821.988 1041.35 872.736C1025.98 890.348 1005.63 902.464 984.854 913.045C963.515 923.912 959.03 933.132 965.687 956.599C965.93 957.455 966.229 958.315 966.529 959.178C967.892 963.1 969.273 967.073 965.487 970.95C960.965 975.58 956.026 974.259 950.683 972.829C950.48 972.775 950.277 972.721 950.074 972.667C899.733 959.241 854.697 935.154 813.056 904.393C807.139 900.022 802.272 894.06 797.561 888.29L797.561 888.289L797.256 887.916C794.776 884.879 794.338 880.141 797.807 877.462C801.054 874.955 803.609 877.011 806.452 879.298C806.815 879.59 807.182 879.886 807.556 880.176C830.027 897.614 854.773 909.063 883.768 911.943C897.176 913.275 910.448 912.784 923.708 912.293H923.708H923.709C931.17 912.017 938.626 911.741 946.101 911.79C956.34 911.857 964.752 907.107 972.761 902.584C973.712 902.047 974.658 901.513 975.601 900.99C1003.45 885.545 1029.88 868.229 1047.84 840.331C1063.92 815.331 1073.67 788.1 1079.4 759.443C1086.65 723.27 1085.99 686.7 1085.32 649.621C1085.11 637.536 1084.89 625.397 1084.94 613.2ZM581.684 537.824C603.577 536.064 615.771 549.033 626.037 564.053C638.664 582.526 645.39 603.465 648.37 625.572C648.87 629.28 649.389 633.223 647.152 636.856C642.737 637.45 642.319 633.946 642.252 631.317C641.696 610.644 632.526 592.61 623.308 575.156C616.73 562.704 607.059 550.64 591.943 547.577C574.71 544.084 558.858 559.566 551.067 579.842C536.636 617.398 539.029 654.36 552.455 690.759C558.33 706.687 565.648 722.913 580.303 734.026C595.142 745.28 613.008 743.295 623.903 728.349C624.526 727.494 625.184 726.649 625.845 725.801L625.845 725.801L625.845 725.801C627.841 723.238 629.853 720.656 630.928 717.749C633.035 712.049 636.256 706.629 642.155 707.423C648.978 708.342 650.271 715.729 650.909 721.499C656.707 773.928 664.758 826.024 672.81 878.126L672.81 878.126C674.808 891.053 676.806 903.98 678.769 916.913C681.369 934.023 684.381 958.598 682.361 969.05C682.219 969.792 682.136 970.523 682.058 971.222C681.749 973.958 681.496 976.21 677.906 976.75C673.034 977.484 670.831 974.66 670.233 970.28C667.913 953.274 667.273 946.747 666.275 920.735C665.308 895.519 660.569 870.665 655.83 845.816L655.83 845.815C654.111 836.799 652.392 827.784 650.853 818.753C645.613 787.996 640.483 756.802 640.022 721.777C639.326 722.808 638.644 723.825 637.974 724.826C630.426 736.095 624.264 745.295 613.48 748.877C595.58 754.827 579.917 750.422 567.371 736.277C553.071 720.155 543.783 701.808 538.558 680.498C530.244 646.587 528.704 613.368 539.487 579.853C544.655 563.774 563.189 535.208 581.684 537.824ZM616.346 665.326C620.717 668.467 624.679 671.316 628.334 659.948C627.158 617.652 613.6 590.654 592.472 589.632C603.747 604.197 614.559 618.413 615.472 638.132C610.742 635.978 607.7 632.589 604.784 629.342C602.753 627.08 600.784 624.886 598.348 623.226C597.31 622.518 596.295 621.735 595.271 620.946C590.544 617.301 585.636 613.516 577.471 616.357C581.301 622.187 586.575 626.301 591.799 630.377C597.832 635.083 603.798 639.737 607.392 646.919C596.777 654.561 592.209 664.62 597.718 676.761C602.497 687.296 609.565 696 623.565 696.635C623.043 690.31 618.868 685.707 614.812 681.235C609.879 675.796 605.121 670.55 607.316 662.635C610.515 661.133 613.516 663.291 616.346 665.326Z" fill="black"/>
<path d="M1528.99 1605L159.99 1601.7C159.99 1601.7 171.373 1504.74 204.333 1412.55C245.508 1297.38 311.516 1180.69 329.263 1166.46C350.142 1149.71 317.682 1148.25 332.729 1125.3C366.227 1074.19 479.664 1027.81 512.52 1011.15C571.175 981.405 677.309 963.409 677.309 963.409L704.52 1016.88C704.52 1016.88 768.021 1038.79 843.095 1041.26C883.569 1042.59 977.463 1011.79 977.463 1011.79L966.281 954C966.281 954 1135.8 988.832 1219.58 1039.61C1267.88 1068.89 1328.13 1114.6 1329.58 1140.85C1331.76 1180.55 1331.33 1177.55 1353.66 1192.67C1407.11 1228.87 1452.38 1314.62 1474.82 1383.91C1492.38 1438.14 1528.99 1605 1528.99 1605Z" fill="white"/>
<path d="M1102.72 1605L1008.25 1604.67L1020.93 1399.58L977.496 1020.24C977.496 1020.24 867.362 1049.14 830.57 1047.27C799.136 1045.67 706.811 1025.16 706.811 1025.16C706.811 1025.16 757.814 1305.18 762.688 1399.58C765.339 1450.92 753.991 1605 753.991 1605L544.635 1603.84L454.006 1405.97C454.006 1405.97 505.096 1272.63 555.48 1199.27C564.483 1186.16 532.738 1183.28 491.362 1185.28C449.187 1187.32 327.208 1171.49 329.01 1140.85C332.032 1089.46 479.528 1027.81 512.394 1011.15C571.071 981.405 677.241 963.409 677.241 963.409L704.462 1016.88C704.462 1016.88 767.985 1038.79 843.085 1041.26C883.574 1042.59 977.5 1011.79 977.5 1011.79L966.314 954C966.314 954 1135.89 988.832 1219.7 1039.61C1268.02 1068.89 1341.7 1105.72 1330.93 1159.93C1328.56 1171.85 1123.88 1206.87 1143.74 1249.71C1168.33 1302.79 1232.51 1368.29 1222.73 1384.71C1206.64 1411.76 1181.91 1452.37 1153.25 1487.99C1133.04 1513.09 1102.72 1605 1102.72 1605Z" fill="black"/>
<path fill-rule="evenodd" clip-rule="evenodd" d="M479.465 1480.38C499.954 1521.03 520.463 1561.72 535.435 1605C542.1 1605 547.588 1605 553.196 1604.04C551.758 1600.32 550.344 1596.62 548.938 1592.94C542.69 1576.59 536.604 1560.66 529.317 1545.25C518.112 1521.56 506.584 1498.01 495.056 1474.46C485.688 1455.32 476.32 1436.19 467.125 1416.97C463.273 1408.93 461.088 1400.13 465.793 1391.19C472.545 1378.37 478.373 1365.17 484.203 1351.96C485.926 1348.05 487.649 1344.14 489.397 1340.25C500.369 1315.78 513.908 1292.56 527.452 1269.34C538.047 1251.16 548.645 1232.99 558.019 1214.21C566.096 1198.03 563.579 1189.83 545.915 1184.26C542.544 1183.14 539.049 1182.4 535.5 1182.05C526.89 1181.33 518.259 1180.82 509.63 1180.32C483.172 1178.77 456.728 1177.22 430.954 1169.46C423.023 1167.07 414.738 1165.76 406.45 1164.44C398.406 1163.17 390.361 1161.9 382.637 1159.64C381.111 1159.19 379.575 1158.75 378.035 1158.31C363.234 1154.07 348.018 1149.71 336.572 1137.98C337.229 1137.12 337.799 1136.34 338.322 1135.63C339.319 1134.27 340.143 1133.15 341.069 1132.1C366.56 1103.4 400.015 1085.17 433.369 1067C440.085 1063.34 446.796 1059.68 453.438 1055.94C473.677 1044.54 494.818 1034.59 515.953 1024.63C523.899 1020.89 531.844 1017.15 539.74 1013.33C559.523 1003.77 579.441 994.733 600.874 988.482C611.535 985.373 622.328 982.89 633.112 980.408C640.906 978.615 648.696 976.822 656.428 974.795C676.537 969.524 680.181 970.8 685.387 990.536C688.392 1001.93 691.461 1013.31 694.53 1024.69C704.08 1060.09 713.631 1095.51 721.251 1131.29C729.981 1172.02 735.738 1213.27 738.479 1254.76C740.008 1278.4 742.673 1301.96 745.338 1325.52C748.974 1357.68 752.61 1389.83 753.361 1422.18C753.843 1442.96 753.168 1463.77 752.493 1484.57C752.179 1494.27 751.864 1503.97 751.667 1513.67C751.393 1527.11 749.873 1540.46 748.354 1553.79C746.416 1570.81 744.479 1587.82 745.135 1604.99C751.805 1604.99 757.288 1604.99 762.937 1603.8C763.201 1598.27 763.342 1592.87 763.48 1587.56C763.744 1577.45 763.998 1567.67 765.079 1557.98C770.756 1507.05 769.924 1455.96 768.816 1404.95C768.058 1371.43 765.249 1337.97 760.402 1304.76C757.856 1287.23 756.852 1269.61 755.848 1251.97C754.536 1228.94 753.224 1205.89 748.469 1183.05C746.098 1171.66 743.971 1160.22 741.844 1148.78C737.998 1128.09 734.15 1107.4 728.859 1086.97C728.604 1085.99 728.199 1085 727.794 1084.02C726.559 1081.02 725.332 1078.04 728.418 1075.11C732.471 1071.25 737.541 1072.38 742.342 1073.66C783.54 1084.69 825.473 1087.57 868.021 1084.34C899.603 1081.94 930.793 1078.46 959.806 1064.78C968.453 1060.71 975.284 1063.29 977.15 1073.81C978.144 1079.4 978.888 1085.05 979.63 1090.69C980.669 1098.59 981.706 1106.46 983.421 1114.12C991.219 1148.88 993.33 1184.08 995.441 1219.28C996.407 1235.4 997.373 1251.52 998.886 1267.59C1000.02 1279.67 1000.87 1291.78 1001.71 1303.89C1002.73 1318.47 1003.75 1333.05 1005.27 1347.58C1011.64 1408.3 1010.02 1469.09 1008 1529.9C1007.78 1536.56 1007.53 1543.22 1007.27 1549.89C1006.56 1568.26 1005.86 1586.63 1005.89 1605C1011.65 1605 1016.26 1605 1021.28 1604C1021.55 1602.14 1021.83 1600.33 1022.1 1598.55C1023.09 1592.1 1024.01 1586.14 1024.11 1580.17C1024.34 1565.3 1024.4 1550.42 1024.45 1535.55C1024.55 1507.45 1024.65 1479.35 1025.98 1451.3C1027.67 1414.3 1026.61 1377.23 1022.8 1340.37C1020.13 1314.15 1018.31 1287.88 1016.49 1261.63C1014.81 1237.46 1013.13 1213.29 1010.8 1189.17C1006.34 1143.15 1000.3 1097.25 990.327 1051.91C985.773 1031.22 981.746 1010.42 977.721 989.63C977.305 987.482 976.889 985.334 976.473 983.187C976.006 980.781 976.056 978.288 976.106 975.792C976.133 974.426 976.16 973.059 976.103 971.705C975.833 965.431 978.784 963.342 985.24 964.577C1011.92 969.68 1038.6 974.958 1064.36 983.374C1085.44 990.263 1106.05 998.349 1126.67 1006.43C1134.02 1009.32 1141.38 1012.21 1148.76 1015.04C1201.28 1035.2 1248.71 1062.79 1289.77 1099.84C1302.65 1111.46 1313.85 1124.9 1321.47 1140.41C1326.01 1149.67 1321.17 1159.58 1311.88 1161.44C1308.81 1162.05 1305.74 1162.66 1302.66 1163.27C1279.98 1167.75 1257.33 1172.23 1235.14 1178.96C1200.66 1189.26 1168.95 1206.6 1142.23 1229.78C1134.62 1236.36 1133.45 1244.47 1137.65 1253.01C1141.63 1261.08 1146.11 1268.96 1150.91 1276.62C1156.69 1285.84 1162.65 1294.96 1168.6 1304.08C1183.49 1326.88 1198.37 1349.67 1210.52 1374.01C1213.81 1380.62 1214.62 1387.06 1210.31 1392.03C1200.91 1402.91 1193.47 1414.96 1186.04 1427.01C1180.65 1435.74 1175.26 1444.48 1169.12 1452.75C1147.96 1480.98 1129.99 1511.25 1115.52 1543.07C1111.95 1551 1108.89 1559.14 1105.85 1567.26C1100.98 1580.22 1096.14 1593.12 1089.27 1605H1089.27C1096.84 1605 1103.21 1605 1109.87 1604.05C1120.63 1571.04 1133.45 1539.84 1151.4 1510.92C1174.4 1473.86 1198.86 1437.66 1223.72 1401.69C1229.97 1392.65 1233.44 1382.9 1227.55 1370.63C1219.53 1353.89 1210.01 1338.03 1200.49 1322.18L1200.08 1321.51C1186.23 1298.44 1171.38 1275.89 1156.42 1253.45C1151.66 1246.31 1154.18 1241.46 1159.41 1236.68C1171.67 1225.47 1186.05 1216.82 1201.14 1209.98C1233.74 1195.2 1267.8 1184.82 1303.96 1180.26C1316.81 1178.64 1326.29 1181.04 1336.07 1187.93C1370.58 1212.22 1400.58 1238.88 1418.58 1278.16C1421.45 1284.41 1424.35 1290.65 1427.25 1296.89C1440.09 1324.53 1452.93 1352.14 1462.81 1380.83C1474.98 1416.18 1486.17 1451.79 1494.73 1488.28C1497.86 1501.61 1500.87 1514.96 1503.87 1528.32C1509.63 1553.89 1515.39 1579.48 1522.03 1605C1526.89 1605 1530.62 1605 1533.99 1604.09C1528.72 1582.42 1524.95 1560.69 1521.19 1539.04C1516.49 1511.97 1511.82 1485.04 1504.28 1458.58C1503.77 1456.81 1503.26 1455.03 1502.76 1453.26C1496.16 1430.1 1489.55 1406.9 1481.66 1384.21C1467.25 1342.77 1450.35 1302.13 1429.77 1263C1411.52 1228.32 1383.95 1201.58 1351.99 1178.14C1350.57 1177.1 1348.81 1176.2 1347 1175.28C1340.94 1172.19 1334.26 1168.77 1337.27 1158.52C1342.45 1140.92 1339.09 1124.83 1323.62 1112.17C1320.11 1109.29 1317.07 1105.87 1314.04 1102.45C1313.06 1101.35 1312.09 1100.25 1311.09 1099.16C1269.61 1053.9 1215.22 1026.69 1159.24 1002.22C1122.81 986.3 1084.71 974.065 1046.6 962.219C1022.91 954.852 998.63 949.002 973.626 947.103C960.858 946.133 955.548 952.011 957.15 964.033C957.545 966.997 957.865 969.977 958.185 972.957C958.913 979.727 959.641 986.496 961.245 993.072C963.951 1004.17 958.032 1010.21 949.11 1014.21C927.132 1024.05 903.828 1031.53 879.825 1033.03C826.959 1036.32 774.447 1033.69 723.783 1016.13C715.335 1013.2 710.493 1008.73 706.903 1001.38C704.445 996.342 702.249 991.208 700.051 986.071C696.719 978.283 693.383 970.486 689.128 963.013C683.699 953.481 677.323 951.301 667.473 954.457C661.131 956.465 654.687 958.169 648.166 959.562C612.594 967.3 577.306 976.044 544.523 991.947C498.523 1014.26 452.786 1037.03 408.437 1062.24C378.241 1079.41 348.434 1096.96 325.849 1123.53C319.637 1130.84 318.312 1138 323.262 1145.67C327.487 1152.21 327.151 1157.24 321.291 1162.63C311.85 1171.31 305.132 1182.09 298.536 1192.68C296.748 1195.55 294.968 1198.4 293.146 1201.2C272.159 1233.14 253.425 1266.38 237.067 1300.69C224.834 1326.59 214.301 1353.11 204.692 1380C204.362 1380.93 204.032 1381.85 203.702 1382.77C195.843 1404.75 187.996 1426.69 182.435 1449.33C180.669 1456.51 178.728 1463.67 176.787 1470.82C173.609 1482.54 170.431 1494.26 168.023 1506.12C161.354 1538.97 155.821 1572.03 150.99 1605C157.656 1605 163.144 1605 168.965 1603.93C171.708 1588.33 174.324 1573.05 176.914 1557.91C179.009 1545.68 181.087 1533.54 183.202 1521.4C194.175 1458.47 215.846 1398.38 240.172 1339.38C263.629 1282.5 295.497 1229.42 331.208 1178.54C335.169 1172.89 340.16 1171.32 346.896 1170.7C363.295 1169.2 378.505 1173.56 393.694 1177.92C401.493 1180.15 409.286 1182.39 417.231 1183.83C422.466 1184.78 427.69 1185.75 432.91 1186.72C459.989 1191.77 486.959 1196.79 514.705 1198.15C517.566 1198.29 520.465 1198.28 523.402 1198.27C531.526 1198.25 539.945 1198.23 548.66 1201.35C545.835 1205.92 543.043 1210.45 540.277 1214.93C532.205 1228.01 524.35 1240.73 516.517 1253.47C500.727 1278.95 486.552 1305.3 474.066 1332.39C471.521 1337.96 469.021 1343.55 466.522 1349.14C460.653 1362.26 454.784 1375.38 448.32 1388.23C444.522 1395.79 443.402 1402.79 446.583 1410.2C447.009 1411.2 447.435 1412.19 447.861 1413.18C453.826 1427.1 459.798 1441.04 466.543 1454.62C470.814 1463.22 475.139 1471.8 479.465 1480.38ZM956.251 1028.46C961.124 1025.84 966.637 1022.97 967.487 1032.15C969.257 1042.68 962.104 1046.32 956.043 1049.4C955.427 1049.72 954.822 1050.02 954.238 1050.33C936.675 1059.63 917.223 1064.38 897.399 1066.61C848.753 1072.07 800.257 1071.56 752.264 1060.83C742.736 1058.58 733.536 1055.21 724.874 1050.81C719.278 1048.07 716.766 1043.97 718.123 1038.35C719.567 1032.37 723.594 1033.38 727.632 1034.39C728.414 1034.59 729.195 1034.78 729.959 1034.93C736.427 1036.16 742.888 1037.43 749.35 1038.71C765.945 1041.99 782.542 1045.26 799.264 1047.78C833.757 1052.99 868.972 1052 903.08 1044.85L904.014 1044.66C922.104 1040.91 939.948 1037.22 956.251 1028.46Z" fill="black"/>
<path d="M377.99 1605C380.992 1570.09 385.082 1535.17 389.374 1500.28C393.031 1470.56 393.408 1440.24 406.773 1412.25C407.799 1409.92 409.065 1407.69 410.552 1405.59C412.909 1402.48 415.622 1398.84 420.283 1400.36C425.617 1402.09 423.876 1406.84 423.032 1410.26C415.08 1442.44 409.657 1475.08 405.324 1507.81C401.153 1539.31 399.084 1571.06 395.861 1603.85C390.14 1605 384.653 1605 377.99 1605Z" fill="black"/>
<path d="M1328.86 1605C1319.08 1568.68 1316.06 1531.32 1305.58 1495.34C1299.44 1474.25 1295.76 1452.54 1287.7 1431.92C1286.06 1427.71 1287.22 1422.98 1291.64 1420.72C1296.11 1418.44 1299.07 1422.05 1301.57 1425.02C1307 1431.48 1309.47 1439.5 1311.5 1447.11C1323.04 1490.54 1332.25 1534.5 1339.11 1578.82C1340.34 1586.77 1340.26 1594.9 1340.99 1603.97C1337.45 1605 1333.72 1605 1328.86 1605Z" fill="black"/>
<path d="M497.684 351.622C530.884 329.322 562.64 306.682 586.556 275.129C601.133 255.897 613.146 234.446 629.356 216.783C662.12 181.083 698.796 150.028 743.226 128.638C783.111 109.438 825.25 103.206 868.601 98.8227C901.182 95.6024 934.049 96.8245 966.301 102.456C999.173 108.075 1022.81 121.471 1025.06 162.909C1025.59 172.784 1029.32 176.932 1039.1 176.092C1068.16 173.597 1094.58 183.252 1120.05 195.263C1147.06 208.001 1165.75 236.02 1144.91 274.029C1163.78 282.181 1181.66 292.439 1198.22 304.608C1223.99 323.294 1236.83 361.56 1223.57 389.279C1214.03 409.232 1193.87 416.104 1173.67 421.166C1155.55 425.71 1137.38 423.736 1118.71 420.141C1113.14 433.341 1109.67 447.083 1095.35 453.904C1076.74 462.774 1057.75 466.362 1037.31 463.204C1010.97 459.138 986.811 448.03 968.143 430.579C946.043 409.924 922.491 409.726 896.177 414.111C880.498 416.724 864.608 414.795 849.525 411.152C825.243 405.287 801.455 397.333 777.541 389.995C760.408 384.737 747.525 390.348 740.002 406.329C728.331 431.12 728.355 458.486 724.189 484.629C719.539 513.829 709.389 539.36 690.489 561.188C674.189 580.011 669.874 602.441 666.877 625.674C666.017 632.349 667.377 640.12 659.364 643.123C651.07 646.233 647.286 638.982 642.635 634.283C631.075 622.605 627.859 606.872 622.662 592.2C617.239 576.505 609.074 561.898 598.546 549.057C585.946 533.832 573.096 535.19 559.246 548.673C548.464 559.173 544.51 570.664 543.497 584.517C543.451 588.483 541.247 592.109 537.747 593.977C526.247 576.297 513.166 559.472 503.737 540.802C493.422 520.375 480.231 501.754 470.568 480.816C450.146 436.579 457.085 383.29 497.684 351.622Z" fill="black"/>
<path d="M874.013 816.826C871.619 834.5 890.119 849.347 906.424 842.837C902.089 827.001 885.646 825.35 874.013 816.826Z" fill="white"/>
<path fill-rule="evenodd" clip-rule="evenodd" d="M863.258 833.796C875.72 857.213 899.297 863.672 924.989 850.062C935.544 843.725 939.899 833.523 943.728 823.996C947.03 816.128 946.467 807.17 942.208 799.777C928.227 774.082 910.974 773.316 890.344 777.224C867.846 781.487 852.524 813.624 863.258 833.796ZM906.424 842.837C890.119 849.347 871.619 834.5 874.013 816.826C877.673 819.508 881.808 821.509 885.894 823.486C894.793 827.793 903.453 831.983 906.424 842.837Z" fill="black"/>
<path d="M858.002 768.029C866.228 771.72 865.693 777.254 862.237 783.05C859.609 787.456 855.688 790.173 850.537 786.957C845.737 783.957 846.789 779.89 849.557 775.963C851.698 772.928 852.594 768.709 858.002 768.029Z" fill="black"/>
<path d="M975.184 716.071C980.733 712.163 984.883 706.579 987.024 700.139C989.779 692.272 988.08 683.53 982.579 677.268C977.343 671.236 970.225 673.631 963.531 675.632C959.423 676.859 954.123 680.886 951.363 674.421C948.963 668.788 953.207 664.433 957.425 661.66C965.688 656.23 974.698 655.231 984.212 658.937C996.098 663.568 1000.62 673.413 1002.32 684.737C1008.97 728.966 971.373 739.107 941.585 737.237C939.453 737.001 937.414 736.234 935.654 735.007C932.284 732.775 926.98 731.16 928.454 725.886C930.132 719.886 935.201 720.895 940.091 721.865C952.114 724.249 963.554 722.061 975.184 716.071Z" fill="black"/>
<path d="M1029.62 650.952C1025.44 641.521 1019.74 635.786 1009.77 635.304C1003.83 635.018 1002.77 630.198 1000.9 625.485C1002.89 623.985 1004.44 621.819 1006.16 621.669C1027.31 619.977 1048.56 619.941 1069.71 621.562C1075.75 621.985 1079.01 629.636 1072.93 632.029C1062.84 635.997 1060.41 645.24 1054.37 651.844C1046.23 660.751 1039.19 660.941 1029.62 650.952Z" fill="black"/>
<path d="M838.645 621.44C850.782 622.089 861.745 622.369 872.634 623.379C876.216 623.711 880.624 625.202 880.649 630.079C880.679 635.733 876.028 635.289 872.297 635.234C865.98 635.142 862.567 637.914 859.831 643.808C856.403 651.195 852.906 659.118 841.8 658.569C831.328 658.051 826.688 651.424 823.656 643.377C821.522 637.714 818.756 634.977 812.714 635.194C809.338 635.314 805.597 635.045 805.207 630.323C804.791 625.29 808.207 624.285 812.245 623.145C820.58 620.788 828.934 620.411 838.645 621.44Z" fill="black"/>
<path d="M830.766 547.895C840.317 537.34 852.602 531.682 862.421 522.89C867.043 518.752 871.891 520.129 875.843 524.529C879.638 528.756 883.124 532.829 878.543 539.006C867.694 553.656 852.243 561.87 835.827 567.266C821.427 571.999 805.966 573.537 790.951 576.361C786.535 577.192 780.776 579.569 779.501 572.685C778.274 566.059 782.664 562.685 788.96 561.474C803.15 558.747 817.438 556.289 830.766 547.895Z" fill="black"/>
<path d="M1063.86 546.023C1075.17 548.083 1081.9 557.045 1091.72 560.179C1095.47 561.373 1100.09 564.856 1098.3 569.724C1096.16 575.524 1090.21 573.989 1086.07 572.624C1072.85 568.245 1059.61 563.741 1046.87 558.16C1034.08 552.56 1021.8 545.76 1009.46 539.176C1003.53 536.013 997.943 531.352 1002.13 523.997C1006.26 516.749 1013.19 514.485 1020.44 520.303C1033.46 530.751 1049.04 536.789 1063.86 546.023Z" fill="black"/>
</svg>
